<svg xmlns="http://www.w3.org/2000/svg" width="250" height="250" viewBox="0 0 250 250">
<!-- SVG created with Arrow, by QuiverAI (https://quiver.ai) -->
  <rect width="250" height="250" fill="#FEFFFE"/>
  <path d="m33.34 122.5c0 9.7-5.69 15.27-13.32 15.27-5.14 0-8.69-2.14-10.4-5.32l-0.37 4.69h-5.63v-42.52h6.49v17.06c2.08-2.75 5.57-4.73 9.91-4.73 7.69 0 13.32 5.37 13.32 15.55zm-6.75-0.12c0-6.81-3.8-9.33-8.61-9.33-5.15 0-7.93 4.47-7.93 9.15v0.68c0 5.41 3.26 9.27 7.68 9.27 5-0.01 8.86-3.06 8.86-9.77z" fill="#6735D3"/>
  <path d="m65.38 117.7v11.62c0 2.32 0.24 5.02 0.77 7.88h-6.42c-0.25-1.45-0.44-2.91-0.5-4.39-2.08 3.28-5.44 5.02-10.54 5.02-6.74 0-11.02-3.48-11.02-8.74 0-4.4 2.78-7.51 10.09-8.41l10.9-1.34v-1.67c0-3.47-2.32-4.93-6.3-4.93-3.85 0-5.81 1.62-6.11 4.21h-6.93c0.43-5.98 5.12-9.31 13.1-9.31 8.53 0 12.96 3.53 12.96 10.06zm-6.54 7.31v-1.08l-8.71 1.21c-2.96 0.42-4.41 1.55-4.41 3.92 0 2.31 1.86 3.82 5.46 3.82 4.86 0 7.66-3.1 7.66-7.87z" fill="#6735D3"/>
  <path d="m100.1 118.8v18.42h-7.14v-16.68c0-5.18-2.3-7.43-6.1-7.43-4.75 0-7.89 3.1-7.89 9.55v14.56h-6.86v-29.32h6.23l0.3 4.86c2.15-3.59 5.52-5.62 10.38-5.62 7.43 0.01 11.08 4.29 11.08 11.66z" fill="#6735D3"/>
  <path d="m118 123.2-4.09 4.52v9.44h-7.21v-42.52h6.92v25.9l12.25-12.82h8.1l-11.56 11.91 11.56 17.53h-7.63l-8.34-13.96z" fill="#6735D3"/>
  <path d="m156.3 107.6v6.65h-3c-6.23 0-8.37 3.18-8.37 9.81v13.1h-6.43v-29.32h6.43l0.18 5.56c1.77-4.1 4.56-6.03 8.05-6.03 1.24 0 2.26 0.06 3.14 0.23z" fill="#6735D3"/>
  <path d="m185.8 117.7v11.62c0 2.32 0.24 5.02 0.76 7.88h-6.42c-0.24-1.45-0.43-2.91-0.5-4.39-2.08 3.28-5.44 5.02-10.54 5.02-6.74 0-11.02-3.48-11.02-8.74 0-4.4 2.79-7.51 10.1-8.41l10.89-1.34v-1.67c0-3.47-2.32-4.93-6.3-4.93-3.85 0-5.81 1.62-6.11 4.21h-6.92c0.42-5.98 5.11-9.31 13.09-9.31 8.55 0 12.97 3.53 12.97 10.06zm-6.54 7.31v-1.08l-8.71 1.21c-2.96 0.42-4.41 1.55-4.41 3.92 0 2.31 1.86 3.82 5.46 3.82 4.86 0 7.66-3.1 7.66-7.87z" fill="#6735D3"/>
  <path d="m192.2 99.21c0-3.1 2.25-4.21 4.4-4.21 2.61 0 4.29 1.67 4.29 4.21 0 2.7-1.68 4.37-4.29 4.37-2.15 0-4.4-1.33-4.4-4.37zm1.02 8.4h6.92v30.13h-6.92v-30.13z" fill="#6735D3"/>
  <path d="m207.7 94.65h6.43v42.52h-6.43v-42.52z" fill="#6735D3"/>
  <path d="m219.7 127.8h7.1c0.43 3.22 2.23 4.67 7.02 4.67 4.23 0 5.84-1.45 5.84-3.71 0-1.97-1.31-3.1-5.53-3.71l-3.71-0.61c-6.17-1.02-9.02-3.71-9.02-8.11 0-5.41 4.28-9.33 12.69-9.33 8.23 0 11.94 3.86 12.48 9.68h-6.73c-0.3-2.7-2.44-4.21-6.14-4.21-3.66 0-5.27 1.45-5.27 3.55 0 1.87 1.14 2.95 5.06 3.56l3.85 0.61c6.75 1.13 9.54 3.76 9.54 8.43 0 5.56-4.59 9.42-13.29 9.42-8.53 0-12.7-3.27-13.89-10.24z" fill="#6735D3"/>
  <path d="m3.62 144.7h243.3v3.22h-243.3v-3.22z" fill="#6735D3"/>
  <path d="m3.62 151.2h243.3v3.22h-243.3v-3.22z" fill="#6735D3"/>
</svg>