<svg xmlns="http://www.w3.org/2000/svg" width="250" height="250" fill="none" viewBox="0 0 250 250">
<!-- SVG created with Arrow, by QuiverAI (https://quiver.ai) -->
  <path d="m184.4 110v-9.94h15.19l-35.07-31.04-51.48 31.04h36.14v10.37h-120.2v9.73h120.1c7.05 0 9.97-6.2 9.97-10.23v-9.79h15.27v9.95h-6.18c0 4.14-0.72 7.59-2.3 10.09h54.12v-10.16l-35.58-0.02z" fill="#7C3AED"/>
  <path d="m100.1 130.1c-7.17 0-10.11 6.25-10.11 10.13v9.54h-15.74v-10h6.64c0-4.18 0.95-7.76 2.64-10.31h-54.53v10.29h35.62v9.67h-14.95l35.64 30.34 51.57-30.17h-36.86v-9.98h119.7v-9.68l-119.6 0.17z" fill="#7C3AED"/>
</svg>
