<svg xmlns="http://www.w3.org/2000/svg" width="36" height="38" fill="none" viewBox="0 0 36 38">
<!-- SVG created with Arrow, by QuiverAI (https://quiver.ai) -->
  <path d="m32.06 19.06c1.93-2.25 2.83-4.99 2.83-7.3 0-6.04-4.61-11.07-10.9-11.07h-22.79v7.59h3.43v6.99h-3.43v2.48h22.74c3.34 0 5.93-2.96 5.93-5.99 0-3.29-2.27-6.02-5.93-6.02h-20.12v-2.68h20.17c4.72 0 8.23 4.16 8.23 8.6 0 4.56-3.74 8.55-8.21 8.55l-22.8 0.01v2.5h6.72v1.64h-3.28v5.42h-3.44v7.49h22.75c5.78 0 10.85-4.91 10.78-10.91-0.03-2.69-1.13-5.41-2.68-7.3zm-8.11-10.8c1.93 0 3.32 1.69 3.32 3.48 0 1.8-1.51 3.5-3.32 3.5h-16.73v-1.62h3.28v-5.36h13.45zm0.01 26.42h-20.15v-2.39h20.21c3.31 0 5.85-2.84 5.85-5.92 0-1.61-0.6-3.18-1.77-4.49 0.78-0.36 1.38-0.71 2-1.19 1.39 1.63 2.12 3.54 2.12 5.62 0 4.51-3.74 8.37-8.26 8.37zm0.01-12h-13.46v7.08h13.46c1.94 0 3.3-1.78 3.3-3.42 0-1.8-1.38-3.66-3.3-3.66z" clip-rule="evenodd" fill="#5109BF" fill-rule="evenodd"/>
</svg>