<svg xmlns="http://www.w3.org/2000/svg" width="32" height="24" viewBox="0 0 32 24">
<!-- SVG created with Arrow, by QuiverAI (https://quiver.ai) -->
  <path d="m30.62 8.94v2.06h-3.96v-2.06h-1.04v2.06h-19.3v-2.06h-1v2.06h-4v-2.06h-0.88v5.95h0.88v-1.92h4v1.92h1v-1.92h19.3v1.92h1.04v-1.92h3.96v1.92h0.94v-5.95h-0.94z" fill="#5014B3"/>
  <path d="m6.32 4v2.11h14.56l-2.59 2.55 1.32 1.37 5-4.92-4.98-5-1.36 1.35 2.61 2.54h-14.56z" fill="#5014B3"/>
  <path d="m25.56 18h-14.51l2.63-2.7-1.39-1.44-4.98 5.08 4.96 4.95 1.36-1.43-2.63-2.55h14.56v-1.91z" fill="#5014B3"/>
</svg>