<svg xmlns="http://www.w3.org/2000/svg" width="256" height="233" fill="none" viewBox="0 0 256 233">
<!-- SVG created with Arrow, by QuiverAI (https://quiver.ai) -->
  <path d="m252.6 50.39h-87.17l-10.8 26.52h60.2v86.91h16.26v-86.91h21.3c2.57 0 3.53-2.44 3.53-4.39v-17.07c0.03-2.37-1.26-5.06-3.32-5.06z" fill="url(#paint0_linear_135_6524)"/>
  <path d="m103.6 0h70.2l-41.22 102.8h46.65l-76.59 126.1 20.2-89.07h-51.4l14.84-63.29h-50.9v87.29h-16.04v-86.91h-15.25c-2.6 0-4.07-2.51-4.07-4.54v-16.25c0-2.92 1.91-5.72 4.45-5.72h87.8l11.33-50.39z" fill="url(#paint1_linear_135_6524)"/>
  <path d="m252.2 169.7h-101.7l-12.91 21.62h114.6c2.82 0 3.72-2.43 3.72-4.56v-12.91c0-2.48-1.66-4.15-3.76-4.15z" fill="url(#paint2_linear_135_6524)"/>
  <path d="m4.38 169.7h100.3l-4.86 21.62h-95.16c-2.68 0-4.62-2.35-4.62-4.82v-12.66c0-2.7 1.83-4.14 4.38-4.14z" fill="url(#paint3_linear_135_6524)"/>
  <path d="m0 0h256v0.55h-256v-0.55z" fill="#FEFFFE"/>
  <defs>
    <linearGradient id="paint0_linear_135_6524" x1="179.8" x2="245.4" y1="33.49" y2="168.1" gradientUnits="userSpaceOnUse">
      <stop stop-color="#50079F" offset="0"/>
      <stop stop-color="#4A068E" offset="1"/>
    </linearGradient>
    <linearGradient id="paint1_linear_135_6524" x1="49.42" x2="171.2" y1="-19.69" y2="240.8" gradientUnits="userSpaceOnUse">
      <stop stop-color="#50079F" offset="0"/>
      <stop stop-color="#4A068E" offset="1"/>
    </linearGradient>
    <linearGradient id="paint2_linear_135_6524" x1="177.9" x2="187.3" y1="162" y2="208" gradientUnits="userSpaceOnUse">
      <stop stop-color="#50079F" offset="0"/>
      <stop stop-color="#4A068E" offset="1"/>
    </linearGradient>
    <linearGradient id="paint3_linear_135_6524" x1="28.61" x2="36.79" y1="162" y2="204.7" gradientUnits="userSpaceOnUse">
      <stop stop-color="#50079F" offset="0"/>
      <stop stop-color="#4A068E" offset="1"/>
    </linearGradient>
  </defs>
</svg>