<svg xmlns="http://www.w3.org/2000/svg" width="200" height="200" viewBox="0 0 200 200">
<!-- SVG created with Arrow, by QuiverAI (https://quiver.ai) -->
  <path d="m130.3 13.8c5.05 6.41 6.6 12.5 6.6 18.93h41.51v58.58h-17.15v-41.68h-17.75v61.39l34.89 34.89 0.02 21.63h-17.23v-10.04l-17.68-18.18v45.76h53.03v-46.46l-29.81-29.81h29.81v-95.01h-66.24z" fill="#4C0EA7"/>
  <path d="m107.1 13.8h-103v171.3h122.2v-67.79c0-7.52-2.44-12.73-8.23-17.79 5.54-4.63 7.88-10.57 7.88-16.78v-48.88c0-11.14-8.02-20.06-18.81-20.06zm1 153.4h-87.08v-134.7h52.58v40.69h18.15v-40.69h16.35v49.7c0 5.94-4.6 8.91-8.7 8.91h-43.49v-41.48h-17.3v100.2h17.48v-40.99h17.43v40.99h17.92v-41.26h7.78c5.9 0 8.88 5.33 8.88 9.37v49.29z" fill="#4C0EA7"/>
</svg>